<mxfile host="app.diagrams.net" modified="2024-05-01T21:46:22.600Z" agent="Mozilla/5.0 (X11; Linux x86_64) AppleWebKit/537.36 (KHTML, like Gecko) Chrome/124.0.0.0 Safari/537.36 Edg/124.0.0.0" etag="Oa1DXTUo5fhOCXrSYXeC" version="24.2.1" type="github">
  <diagram name="Page-1" id="sSxVgzqxH3oke8UyHyd3">
    <mxGraphModel dx="2571" dy="926" grid="1" gridSize="10" guides="1" tooltips="1" connect="1" arrows="1" fold="1" page="1" pageScale="1" pageWidth="827" pageHeight="1169" math="0" shadow="0">
      <root>
        <mxCell id="0" />
        <mxCell id="1" parent="0" />
        <mxCell id="tfZfr7Ng935l3aJFOSBA-4" value="&lt;h1&gt;&lt;b&gt;&lt;font face=&quot;Times New Roman&quot; style=&quot;font-size: 18px;&quot;&gt;Automated Multiple Login Failed Alerts Response&lt;/font&gt;&lt;/b&gt;&lt;/h1&gt;" style="text;html=1;align=center;verticalAlign=middle;whiteSpace=wrap;rounded=0;" vertex="1" parent="1">
          <mxGeometry x="-570" y="40" width="400" height="30" as="geometry" />
        </mxCell>
        <mxCell id="tfZfr7Ng935l3aJFOSBA-81" value="" style="group" vertex="1" connectable="0" parent="1">
          <mxGeometry x="-790" y="130" width="916" height="1520" as="geometry" />
        </mxCell>
        <mxCell id="tfZfr7Ng935l3aJFOSBA-32" style="edgeStyle=orthogonalEdgeStyle;rounded=0;orthogonalLoop=1;jettySize=auto;html=1;strokeWidth=2;" edge="1" parent="tfZfr7Ng935l3aJFOSBA-81" source="tfZfr7Ng935l3aJFOSBA-13">
          <mxGeometry relative="1" as="geometry">
            <mxPoint x="30" y="600" as="targetPoint" />
          </mxGeometry>
        </mxCell>
        <mxCell id="tfZfr7Ng935l3aJFOSBA-53" style="edgeStyle=orthogonalEdgeStyle;rounded=0;orthogonalLoop=1;jettySize=auto;html=1;strokeWidth=2;" edge="1" parent="tfZfr7Ng935l3aJFOSBA-81" source="tfZfr7Ng935l3aJFOSBA-13">
          <mxGeometry relative="1" as="geometry">
            <mxPoint x="570" y="580" as="targetPoint" />
          </mxGeometry>
        </mxCell>
        <mxCell id="tfZfr7Ng935l3aJFOSBA-13" value="Notify Analyst" style="strokeWidth=2;html=1;shape=mxgraph.flowchart.decision;whiteSpace=wrap;" vertex="1" parent="tfZfr7Ng935l3aJFOSBA-81">
          <mxGeometry x="300" y="470" width="100" height="100" as="geometry" />
        </mxCell>
        <mxCell id="tfZfr7Ng935l3aJFOSBA-16" value="&lt;b&gt;Close Playbook&lt;/b&gt;" style="text;html=1;align=center;verticalAlign=middle;whiteSpace=wrap;rounded=1;strokeColor=default;" vertex="1" parent="tfZfr7Ng935l3aJFOSBA-81">
          <mxGeometry x="160" y="1490" width="150" height="30" as="geometry" />
        </mxCell>
        <mxCell id="tfZfr7Ng935l3aJFOSBA-22" value="" style="group" vertex="1" connectable="0" parent="tfZfr7Ng935l3aJFOSBA-81">
          <mxGeometry x="330" width="320" height="50" as="geometry" />
        </mxCell>
        <mxCell id="tfZfr7Ng935l3aJFOSBA-27" style="edgeStyle=orthogonalEdgeStyle;rounded=0;orthogonalLoop=1;jettySize=auto;html=1;strokeWidth=2;" edge="1" parent="tfZfr7Ng935l3aJFOSBA-22" source="tfZfr7Ng935l3aJFOSBA-5">
          <mxGeometry relative="1" as="geometry">
            <mxPoint x="25" y="150" as="targetPoint" />
          </mxGeometry>
        </mxCell>
        <mxCell id="tfZfr7Ng935l3aJFOSBA-5" value="" style="points=[[0.35,0,0],[0.98,0.51,0],[1,0.71,0],[0.67,1,0],[0,0.795,0],[0,0.65,0]];verticalLabelPosition=bottom;sketch=0;html=1;verticalAlign=top;aspect=fixed;align=center;pointerEvents=1;shape=mxgraph.cisco19.user;fillColor=#005073;strokeColor=none;" vertex="1" parent="tfZfr7Ng935l3aJFOSBA-22">
          <mxGeometry width="50" height="50" as="geometry" />
        </mxCell>
        <mxCell id="tfZfr7Ng935l3aJFOSBA-9" value="user with 4 times failed password attempts&amp;nbsp;" style="text;html=1;align=center;verticalAlign=middle;whiteSpace=wrap;rounded=1;strokeColor=default;" vertex="1" parent="tfZfr7Ng935l3aJFOSBA-22">
          <mxGeometry x="80" y="20" width="240" height="30" as="geometry" />
        </mxCell>
        <mxCell id="tfZfr7Ng935l3aJFOSBA-23" value="" style="group" vertex="1" connectable="0" parent="tfZfr7Ng935l3aJFOSBA-81">
          <mxGeometry x="316" y="160" width="364" height="78" as="geometry" />
        </mxCell>
        <mxCell id="tfZfr7Ng935l3aJFOSBA-8" value="" style="sketch=0;outlineConnect=0;fontColor=#232F3E;gradientColor=none;fillColor=#7AA116;strokeColor=none;dashed=0;verticalLabelPosition=bottom;verticalAlign=top;align=center;html=1;fontSize=12;fontStyle=0;aspect=fixed;pointerEvents=1;shape=mxgraph.aws4.iot_sitewise_asset_hierarchy;" vertex="1" parent="tfZfr7Ng935l3aJFOSBA-23">
          <mxGeometry width="78" height="78" as="geometry" />
        </mxCell>
        <mxCell id="tfZfr7Ng935l3aJFOSBA-10" value="Playbook trigger Email to user asking for password Reset&amp;nbsp;" style="text;html=1;align=left;verticalAlign=middle;whiteSpace=wrap;rounded=1;strokeColor=default;" vertex="1" parent="tfZfr7Ng935l3aJFOSBA-23">
          <mxGeometry x="94" y="30" width="226" height="40" as="geometry" />
        </mxCell>
        <mxCell id="tfZfr7Ng935l3aJFOSBA-24" value="" style="group" vertex="1" connectable="0" parent="tfZfr7Ng935l3aJFOSBA-81">
          <mxGeometry x="319.75" y="330" width="356.5" height="48" as="geometry" />
        </mxCell>
        <mxCell id="tfZfr7Ng935l3aJFOSBA-31" style="edgeStyle=orthogonalEdgeStyle;rounded=0;orthogonalLoop=1;jettySize=auto;html=1;strokeWidth=2;" edge="1" parent="tfZfr7Ng935l3aJFOSBA-24" source="tfZfr7Ng935l3aJFOSBA-11">
          <mxGeometry relative="1" as="geometry">
            <mxPoint x="31.5" y="130" as="targetPoint" />
          </mxGeometry>
        </mxCell>
        <mxCell id="tfZfr7Ng935l3aJFOSBA-11" value="" style="image;aspect=fixed;html=1;points=[];align=center;fontSize=12;image=img/lib/azure2/analytics/Analysis_Services.svg;" vertex="1" parent="tfZfr7Ng935l3aJFOSBA-24">
          <mxGeometry width="63" height="48" as="geometry" />
        </mxCell>
        <mxCell id="tfZfr7Ng935l3aJFOSBA-12" value="&lt;ul&gt;&lt;li&gt;Receive user reply&lt;/li&gt;&lt;li&gt;Take actions based on user reply&amp;nbsp;&lt;/li&gt;&lt;/ul&gt;" style="text;html=1;align=left;verticalAlign=middle;whiteSpace=wrap;rounded=1;strokeColor=default;" vertex="1" parent="tfZfr7Ng935l3aJFOSBA-24">
          <mxGeometry x="86.5" y="9" width="270" height="30" as="geometry" />
        </mxCell>
        <mxCell id="tfZfr7Ng935l3aJFOSBA-25" value="" style="group" vertex="1" connectable="0" parent="tfZfr7Ng935l3aJFOSBA-81">
          <mxGeometry y="770" width="220" height="59" as="geometry" />
        </mxCell>
        <mxCell id="tfZfr7Ng935l3aJFOSBA-20" value="" style="sketch=0;pointerEvents=1;shadow=0;dashed=0;html=1;strokeColor=none;fillColor=#505050;labelPosition=center;verticalLabelPosition=bottom;verticalAlign=top;outlineConnect=0;align=center;shape=mxgraph.office.users.mail_user;" vertex="1" parent="tfZfr7Ng935l3aJFOSBA-25">
          <mxGeometry width="58" height="59" as="geometry" />
        </mxCell>
        <mxCell id="tfZfr7Ng935l3aJFOSBA-21" value="Send Revised credentials to user&#39;s email&amp;nbsp;" style="text;html=1;align=center;verticalAlign=middle;whiteSpace=wrap;rounded=1;strokeColor=default;" vertex="1" parent="tfZfr7Ng935l3aJFOSBA-25">
          <mxGeometry x="70" y="29" width="150" height="30" as="geometry" />
        </mxCell>
        <mxCell id="tfZfr7Ng935l3aJFOSBA-26" value="" style="group" vertex="1" connectable="0" parent="tfZfr7Ng935l3aJFOSBA-81">
          <mxGeometry y="610" width="270" height="54" as="geometry" />
        </mxCell>
        <mxCell id="tfZfr7Ng935l3aJFOSBA-15" value="&lt;ul&gt;&lt;li&gt;Expire /Forgotten Password&lt;/li&gt;&lt;li&gt;Reset Password on AD&lt;/li&gt;&lt;/ul&gt;" style="text;html=1;align=left;verticalAlign=middle;whiteSpace=wrap;rounded=1;strokeColor=default;" vertex="1" parent="tfZfr7Ng935l3aJFOSBA-26">
          <mxGeometry x="70" width="200" height="50" as="geometry" />
        </mxCell>
        <mxCell id="tfZfr7Ng935l3aJFOSBA-18" value="" style="image;aspect=fixed;html=1;points=[];align=center;fontSize=12;image=img/lib/azure2/identity/Azure_AD_Domain_Services.svg;" vertex="1" parent="tfZfr7Ng935l3aJFOSBA-26">
          <mxGeometry width="59.06" height="54" as="geometry" />
        </mxCell>
        <mxCell id="tfZfr7Ng935l3aJFOSBA-29" style="edgeStyle=orthogonalEdgeStyle;rounded=0;orthogonalLoop=1;jettySize=auto;html=1;strokeWidth=2;" edge="1" parent="tfZfr7Ng935l3aJFOSBA-81" source="tfZfr7Ng935l3aJFOSBA-8">
          <mxGeometry relative="1" as="geometry">
            <mxPoint x="355" y="320" as="targetPoint" />
          </mxGeometry>
        </mxCell>
        <mxCell id="tfZfr7Ng935l3aJFOSBA-33" style="edgeStyle=orthogonalEdgeStyle;rounded=0;orthogonalLoop=1;jettySize=auto;html=1;strokeWidth=2;" edge="1" parent="tfZfr7Ng935l3aJFOSBA-81" source="tfZfr7Ng935l3aJFOSBA-18" target="tfZfr7Ng935l3aJFOSBA-20">
          <mxGeometry relative="1" as="geometry" />
        </mxCell>
        <mxCell id="tfZfr7Ng935l3aJFOSBA-34" value="User Genuine Activity&amp;nbsp;" style="text;html=1;align=center;verticalAlign=middle;whiteSpace=wrap;rounded=0;" vertex="1" parent="tfZfr7Ng935l3aJFOSBA-81">
          <mxGeometry x="80" y="490" width="190" height="30" as="geometry" />
        </mxCell>
        <mxCell id="tfZfr7Ng935l3aJFOSBA-47" value="&lt;font style=&quot;font-size: 11px;&quot;&gt;Notify Analyst check Malice&lt;/font&gt;" style="strokeWidth=2;html=1;shape=mxgraph.flowchart.decision;whiteSpace=wrap;" vertex="1" parent="tfZfr7Ng935l3aJFOSBA-81">
          <mxGeometry x="500" y="1240" width="100" height="100" as="geometry" />
        </mxCell>
        <mxCell id="tfZfr7Ng935l3aJFOSBA-48" value="&lt;ul&gt;&lt;li&gt;Block/Quarantine IP / Disable User&lt;/li&gt;&lt;li&gt;Inform Manager&amp;nbsp;&lt;/li&gt;&lt;li&gt;create ITSM ticket &amp;amp; Notify&amp;nbsp; support team&amp;nbsp; of actions taken&amp;nbsp;&lt;/li&gt;&lt;/ul&gt;" style="text;html=1;align=left;verticalAlign=middle;whiteSpace=wrap;rounded=1;strokeColor=default;" vertex="1" parent="tfZfr7Ng935l3aJFOSBA-81">
          <mxGeometry x="630" y="1340" width="286" height="60" as="geometry" />
        </mxCell>
        <mxCell id="tfZfr7Ng935l3aJFOSBA-54" style="edgeStyle=orthogonalEdgeStyle;rounded=0;orthogonalLoop=1;jettySize=auto;html=1;entryX=0.5;entryY=0;entryDx=0;entryDy=0;entryPerimeter=0;strokeWidth=2;" edge="1" parent="tfZfr7Ng935l3aJFOSBA-81" source="tfZfr7Ng935l3aJFOSBA-35" target="tfZfr7Ng935l3aJFOSBA-39">
          <mxGeometry relative="1" as="geometry" />
        </mxCell>
        <mxCell id="tfZfr7Ng935l3aJFOSBA-55" value="" style="group" vertex="1" connectable="0" parent="tfZfr7Ng935l3aJFOSBA-81">
          <mxGeometry x="530" y="590" width="240" height="80" as="geometry" />
        </mxCell>
        <mxCell id="tfZfr7Ng935l3aJFOSBA-35" value="" style="sketch=0;outlineConnect=0;fontColor=#232F3E;gradientColor=none;fillColor=#7AA116;strokeColor=none;dashed=0;verticalLabelPosition=bottom;verticalAlign=top;align=center;html=1;fontSize=12;fontStyle=0;aspect=fixed;pointerEvents=1;shape=mxgraph.aws4.iot_sitewise_asset_hierarchy;" vertex="1" parent="tfZfr7Ng935l3aJFOSBA-55">
          <mxGeometry width="78" height="78" as="geometry" />
        </mxCell>
        <mxCell id="tfZfr7Ng935l3aJFOSBA-36" value="Playbook will trigger&amp;nbsp; Investigation action&amp;nbsp;" style="text;html=1;align=center;verticalAlign=middle;whiteSpace=wrap;rounded=1;strokeColor=default;" vertex="1" parent="tfZfr7Ng935l3aJFOSBA-55">
          <mxGeometry x="90" y="50" width="150" height="30" as="geometry" />
        </mxCell>
        <mxCell id="tfZfr7Ng935l3aJFOSBA-56" value="" style="group" vertex="1" connectable="0" parent="tfZfr7Ng935l3aJFOSBA-81">
          <mxGeometry x="524" y="734" width="302.25" height="76" as="geometry" />
        </mxCell>
        <mxCell id="tfZfr7Ng935l3aJFOSBA-40" value="SIEM &amp;amp; CASB&amp;nbsp;" style="text;html=1;align=center;verticalAlign=middle;whiteSpace=wrap;rounded=1;strokeColor=default;" vertex="1" parent="tfZfr7Ng935l3aJFOSBA-56">
          <mxGeometry x="152.25" y="41" width="150" height="30" as="geometry" />
        </mxCell>
        <mxCell id="tfZfr7Ng935l3aJFOSBA-49" value="" style="group" vertex="1" connectable="0" parent="tfZfr7Ng935l3aJFOSBA-56">
          <mxGeometry width="133" height="76" as="geometry" />
        </mxCell>
        <mxCell id="tfZfr7Ng935l3aJFOSBA-37" value="" style="fillColor=#28A8E0;verticalLabelPosition=bottom;sketch=0;html=1;strokeColor=#ffffff;verticalAlign=top;align=center;points=[[0.145,0.145,0],[0.5,0,0],[0.855,0.145,0],[1,0.5,0],[0.855,0.855,0],[0.5,1,0],[0.145,0.855,0],[0,0.5,0]];pointerEvents=1;shape=mxgraph.cisco_safe.compositeIcon;bgIcon=ellipse;resIcon=mxgraph.cisco_safe.capability.casb;" vertex="1" parent="tfZfr7Ng935l3aJFOSBA-49">
          <mxGeometry x="90" y="36" width="43" height="40" as="geometry" />
        </mxCell>
        <mxCell id="tfZfr7Ng935l3aJFOSBA-60" style="edgeStyle=orthogonalEdgeStyle;rounded=0;orthogonalLoop=1;jettySize=auto;html=1;strokeWidth=2;" edge="1" parent="tfZfr7Ng935l3aJFOSBA-49" source="tfZfr7Ng935l3aJFOSBA-39">
          <mxGeometry relative="1" as="geometry">
            <mxPoint x="45" y="136" as="targetPoint" />
          </mxGeometry>
        </mxCell>
        <mxCell id="tfZfr7Ng935l3aJFOSBA-39" value="" style="verticalLabelPosition=bottom;sketch=0;html=1;fillColor=#A153A0;strokeColor=#ffffff;verticalAlign=top;align=center;points=[[0,0.5,0],[0.125,0.25,0],[0.25,0,0],[0.5,0,0],[0.75,0,0],[0.875,0.25,0],[1,0.5,0],[0.875,0.75,0],[0.75,1,0],[0.5,1,0],[0.125,0.75,0]];pointerEvents=1;shape=mxgraph.cisco_safe.compositeIcon;bgIcon=mxgraph.cisco_safe.design.blank_device;resIcon=mxgraph.cisco_safe.design.siem_2;" vertex="1" parent="tfZfr7Ng935l3aJFOSBA-49">
          <mxGeometry width="90" height="69" as="geometry" />
        </mxCell>
        <mxCell id="tfZfr7Ng935l3aJFOSBA-57" value="" style="group" vertex="1" connectable="0" parent="tfZfr7Ng935l3aJFOSBA-81">
          <mxGeometry x="530" y="880" width="235" height="68" as="geometry" />
        </mxCell>
        <mxCell id="tfZfr7Ng935l3aJFOSBA-41" value="" style="shape=image;html=1;verticalAlign=top;verticalLabelPosition=bottom;labelBackgroundColor=#ffffff;imageAspect=0;aspect=fixed;image=https://cdn4.iconfinder.com/data/icons/meBaze-Freebies/128/info-user.png" vertex="1" parent="tfZfr7Ng935l3aJFOSBA-57">
          <mxGeometry width="68" height="68" as="geometry" />
        </mxCell>
        <mxCell id="tfZfr7Ng935l3aJFOSBA-42" value="Extract usernames , Source &amp;amp; Destination IP" style="text;html=1;align=center;verticalAlign=middle;whiteSpace=wrap;rounded=1;strokeColor=default;" vertex="1" parent="tfZfr7Ng935l3aJFOSBA-57">
          <mxGeometry x="85" y="30" width="150" height="30" as="geometry" />
        </mxCell>
        <mxCell id="tfZfr7Ng935l3aJFOSBA-58" value="" style="group" vertex="1" connectable="0" parent="tfZfr7Ng935l3aJFOSBA-81">
          <mxGeometry x="524" y="1010" width="224.53" height="54" as="geometry" />
        </mxCell>
        <mxCell id="tfZfr7Ng935l3aJFOSBA-43" value="" style="image;aspect=fixed;html=1;points=[];align=center;fontSize=12;image=img/lib/azure2/identity/Azure_AD_Domain_Services.svg;" vertex="1" parent="tfZfr7Ng935l3aJFOSBA-58">
          <mxGeometry width="59.06" height="54" as="geometry" />
        </mxCell>
        <mxCell id="tfZfr7Ng935l3aJFOSBA-44" value="Look up user in AD" style="text;html=1;align=center;verticalAlign=middle;whiteSpace=wrap;rounded=1;strokeColor=default;" vertex="1" parent="tfZfr7Ng935l3aJFOSBA-58">
          <mxGeometry x="86" y="12" width="150" height="30" as="geometry" />
        </mxCell>
        <mxCell id="tfZfr7Ng935l3aJFOSBA-59" value="" style="group" vertex="1" connectable="0" parent="tfZfr7Ng935l3aJFOSBA-81">
          <mxGeometry x="520" y="1130" width="366.53" height="52" as="geometry" />
        </mxCell>
        <mxCell id="tfZfr7Ng935l3aJFOSBA-65" style="edgeStyle=orthogonalEdgeStyle;rounded=0;orthogonalLoop=1;jettySize=auto;html=1;strokeWidth=2;" edge="1" parent="tfZfr7Ng935l3aJFOSBA-59" source="tfZfr7Ng935l3aJFOSBA-45">
          <mxGeometry relative="1" as="geometry">
            <mxPoint x="33.5" y="100" as="targetPoint" />
          </mxGeometry>
        </mxCell>
        <mxCell id="tfZfr7Ng935l3aJFOSBA-45" value="" style="image;aspect=fixed;html=1;points=[];align=center;fontSize=12;image=img/lib/azure2/networking/IP_Groups.svg;" vertex="1" parent="tfZfr7Ng935l3aJFOSBA-59">
          <mxGeometry width="67" height="52" as="geometry" />
        </mxCell>
        <mxCell id="tfZfr7Ng935l3aJFOSBA-46" value="&lt;ul&gt;&lt;li&gt;Check IP Reputation&amp;nbsp;&lt;/li&gt;&lt;li&gt;Calculate distance b/w IP&lt;/li&gt;&lt;li&gt;Generate location map &amp;amp; event duration&amp;nbsp;&lt;/li&gt;&lt;/ul&gt;" style="text;html=1;align=left;verticalAlign=middle;whiteSpace=wrap;rounded=1;strokeColor=default;" vertex="1" parent="tfZfr7Ng935l3aJFOSBA-59">
          <mxGeometry x="80.53" y="1" width="286" height="50" as="geometry" />
        </mxCell>
        <mxCell id="tfZfr7Ng935l3aJFOSBA-62" style="edgeStyle=orthogonalEdgeStyle;rounded=0;orthogonalLoop=1;jettySize=auto;html=1;entryX=0.677;entryY=-0.037;entryDx=0;entryDy=0;entryPerimeter=0;strokeWidth=2;" edge="1" parent="tfZfr7Ng935l3aJFOSBA-81" source="tfZfr7Ng935l3aJFOSBA-41" target="tfZfr7Ng935l3aJFOSBA-43">
          <mxGeometry relative="1" as="geometry" />
        </mxCell>
        <mxCell id="tfZfr7Ng935l3aJFOSBA-63" value="" style="edgeStyle=orthogonalEdgeStyle;rounded=0;orthogonalLoop=1;jettySize=auto;html=1;strokeWidth=2;" edge="1" parent="tfZfr7Ng935l3aJFOSBA-81" source="tfZfr7Ng935l3aJFOSBA-43" target="tfZfr7Ng935l3aJFOSBA-45">
          <mxGeometry relative="1" as="geometry" />
        </mxCell>
        <mxCell id="tfZfr7Ng935l3aJFOSBA-66" value="Not End-User Activity&amp;nbsp;" style="text;html=1;align=center;verticalAlign=middle;whiteSpace=wrap;rounded=0;" vertex="1" parent="tfZfr7Ng935l3aJFOSBA-81">
          <mxGeometry x="395" y="490" width="190" height="30" as="geometry" />
        </mxCell>
        <mxCell id="tfZfr7Ng935l3aJFOSBA-67" style="edgeStyle=orthogonalEdgeStyle;rounded=0;orthogonalLoop=1;jettySize=auto;html=1;entryX=0.633;entryY=0;entryDx=0;entryDy=0;entryPerimeter=0;strokeWidth=2;" edge="1" parent="tfZfr7Ng935l3aJFOSBA-81" source="tfZfr7Ng935l3aJFOSBA-47" target="tfZfr7Ng935l3aJFOSBA-48">
          <mxGeometry relative="1" as="geometry" />
        </mxCell>
        <mxCell id="tfZfr7Ng935l3aJFOSBA-68" value="Malicious&amp;nbsp;" style="text;html=1;align=center;verticalAlign=middle;whiteSpace=wrap;rounded=0;" vertex="1" parent="tfZfr7Ng935l3aJFOSBA-81">
          <mxGeometry x="608.26" y="1260" width="190" height="30" as="geometry" />
        </mxCell>
        <mxCell id="tfZfr7Ng935l3aJFOSBA-71" style="edgeStyle=orthogonalEdgeStyle;rounded=0;orthogonalLoop=1;jettySize=auto;html=1;entryX=0.667;entryY=0;entryDx=0;entryDy=0;entryPerimeter=0;strokeWidth=2;" edge="1" parent="tfZfr7Ng935l3aJFOSBA-81" source="tfZfr7Ng935l3aJFOSBA-47" target="tfZfr7Ng935l3aJFOSBA-52">
          <mxGeometry relative="1" as="geometry" />
        </mxCell>
        <mxCell id="tfZfr7Ng935l3aJFOSBA-72" value="Non Malicious&amp;nbsp;" style="text;html=1;align=center;verticalAlign=middle;whiteSpace=wrap;rounded=0;" vertex="1" parent="tfZfr7Ng935l3aJFOSBA-81">
          <mxGeometry x="300" y="1260" width="190" height="30" as="geometry" />
        </mxCell>
        <mxCell id="tfZfr7Ng935l3aJFOSBA-74" value="" style="group" vertex="1" connectable="0" parent="tfZfr7Ng935l3aJFOSBA-81">
          <mxGeometry x="220" y="1340" width="320" height="76" as="geometry" />
        </mxCell>
        <mxCell id="tfZfr7Ng935l3aJFOSBA-50" value="" style="group" vertex="1" connectable="0" parent="tfZfr7Ng935l3aJFOSBA-74">
          <mxGeometry width="133" height="76" as="geometry" />
        </mxCell>
        <mxCell id="tfZfr7Ng935l3aJFOSBA-51" value="" style="fillColor=#28A8E0;verticalLabelPosition=bottom;sketch=0;html=1;strokeColor=#ffffff;verticalAlign=top;align=center;points=[[0.145,0.145,0],[0.5,0,0],[0.855,0.145,0],[1,0.5,0],[0.855,0.855,0],[0.5,1,0],[0.145,0.855,0],[0,0.5,0]];pointerEvents=1;shape=mxgraph.cisco_safe.compositeIcon;bgIcon=ellipse;resIcon=mxgraph.cisco_safe.capability.casb;" vertex="1" parent="tfZfr7Ng935l3aJFOSBA-50">
          <mxGeometry x="90" y="36" width="43" height="40" as="geometry" />
        </mxCell>
        <mxCell id="tfZfr7Ng935l3aJFOSBA-76" style="edgeStyle=orthogonalEdgeStyle;rounded=0;orthogonalLoop=1;jettySize=auto;html=1;strokeWidth=2;" edge="1" parent="tfZfr7Ng935l3aJFOSBA-50" source="tfZfr7Ng935l3aJFOSBA-52">
          <mxGeometry relative="1" as="geometry">
            <mxPoint x="45" y="140" as="targetPoint" />
          </mxGeometry>
        </mxCell>
        <mxCell id="tfZfr7Ng935l3aJFOSBA-52" value="" style="verticalLabelPosition=bottom;sketch=0;html=1;fillColor=#A153A0;strokeColor=#ffffff;verticalAlign=top;align=center;points=[[0,0.5,0],[0.125,0.25,0],[0.25,0,0],[0.5,0,0],[0.75,0,0],[0.875,0.25,0],[1,0.5,0],[0.875,0.75,0],[0.75,1,0],[0.5,1,0],[0.125,0.75,0]];pointerEvents=1;shape=mxgraph.cisco_safe.compositeIcon;bgIcon=mxgraph.cisco_safe.design.blank_device;resIcon=mxgraph.cisco_safe.design.siem_2;" vertex="1" parent="tfZfr7Ng935l3aJFOSBA-50">
          <mxGeometry width="90" height="69" as="geometry" />
        </mxCell>
        <mxCell id="tfZfr7Ng935l3aJFOSBA-73" value="Update &amp;amp; sync to CASB, SIEM" style="text;html=1;align=center;verticalAlign=middle;whiteSpace=wrap;rounded=1;strokeColor=default;" vertex="1" parent="tfZfr7Ng935l3aJFOSBA-74">
          <mxGeometry x="140" y="46" width="180" height="30" as="geometry" />
        </mxCell>
        <mxCell id="tfZfr7Ng935l3aJFOSBA-80" style="edgeStyle=orthogonalEdgeStyle;rounded=0;orthogonalLoop=1;jettySize=auto;html=1;entryX=0;entryY=0.25;entryDx=0;entryDy=0;strokeWidth=2;" edge="1" parent="tfZfr7Ng935l3aJFOSBA-81" source="tfZfr7Ng935l3aJFOSBA-20" target="tfZfr7Ng935l3aJFOSBA-16">
          <mxGeometry relative="1" as="geometry">
            <Array as="points">
              <mxPoint x="29" y="1498" />
            </Array>
          </mxGeometry>
        </mxCell>
      </root>
    </mxGraphModel>
  </diagram>
</mxfile>
